<svg xmlns="http://www.w3.org/2000/svg" xmlns:xlink="http://www.w3.org/1999/xlink" id="Laag_1" x="0px" y="0px" viewBox="0 0 84.8 83.7" style="enable-background:new 0 0 84.8 83.7;" xml:space="preserve"><style type="text/css">	.st0{fill:#010202;}</style><g>	<path id="XMLID_116_" class="st0" d="M22.8,62l-1.2-3.6c-0.9-2.6-0.3-4.2,1.8-4.9c0.4-0.2,0.9-0.2,1.2-0.2c0.4,0,0.7,0.1,1,0.2   c0.3,0.1,0.6,0.3,0.8,0.6c0.3,0.3,0.5,0.5,0.7,0.9c0.2,0.3,0.4,0.7,0.5,1.1L28,57l-2.2,0.7l-0.3-1c-0.1-0.2-0.1-0.4-0.2-0.5   c-0.1-0.1-0.1-0.3-0.2-0.5c-0.1-0.2-0.2-0.3-0.3-0.4c-0.1-0.1-0.2-0.2-0.4-0.2c-0.1,0-0.3,0-0.5,0c-0.6,0.2-0.8,0.9-0.4,1.9   l1.6,4.7c0.4,1.1,0.9,1.5,1.5,1.3c0.2-0.1,0.3-0.2,0.4-0.3c0.1-0.2,0.1-0.3,0.1-0.6c0-0.2,0-0.4-0.1-0.6c0-0.2-0.1-0.4-0.2-0.7   l-0.4-1.1l2.1-0.7L29,60c0.1,0.4,0.2,0.8,0.3,1.2c0.1,0.4,0.1,0.7,0,1.1c0,0.4-0.1,0.7-0.3,1c-0.1,0.3-0.4,0.6-0.7,0.8   c-0.3,0.3-0.7,0.5-1.1,0.6c-0.5,0.2-0.9,0.2-1.3,0.2c-0.4,0-0.8-0.1-1.1-0.2c-0.3-0.1-0.6-0.4-0.9-0.6c-0.3-0.3-0.5-0.6-0.7-0.9   C23.1,62.9,22.9,62.5,22.8,62z"></path>	<path id="XMLID_115_" class="st0" d="M31.2,63.1l-3.8-10.8l4.5-1.6l0.5,1.5L30.2,53l1,3l1.6-0.6l0.5,1.5l-1.6,0.6l1.2,3.3l2.3-0.8   l0.5,1.5L31.2,63.1z"></path>	<path id="XMLID_114_" class="st0" d="M36.6,61.3l-3.8-10.8l2.4-0.8c0.5-0.2,1-0.3,1.5-0.3c0.4,0,0.9,0,1.2,0.1   c0.4,0.1,0.7,0.3,1,0.6c0.3,0.3,0.5,0.7,0.7,1.3c0.1,0.2,0.1,0.4,0.2,0.6c0,0.2,0.1,0.4,0.1,0.6c0,0.2,0,0.5,0,0.7   c0,0.2-0.1,0.4-0.3,0.7c-0.1,0.2-0.3,0.5-0.5,0.7c1.4,1.8,2.5,3.4,3.5,4.6L40.3,60l-3-4.6L37,55.5l1.7,5L36.6,61.3z M36.5,54.2   l0.6-0.2c0.2-0.1,0.3-0.2,0.4-0.3c0.1-0.2,0.1-0.3,0.1-0.5c0-0.2,0-0.4-0.1-0.5c0-0.2-0.1-0.3-0.1-0.4c0-0.1-0.1-0.3-0.2-0.4   c-0.1-0.1-0.2-0.3-0.3-0.4c-0.1-0.2-0.2-0.3-0.4-0.3c-0.1-0.1-0.3-0.1-0.4,0l-0.7,0.3L36.5,54.2z"></path>	<path id="XMLID_113_" class="st0" d="M44.3,58.6l-3.2-9.2l-1.6,0.6L39,48.3l5.3-1.9l0.6,1.6l-1.6,0.5l3.2,9.2L44.3,58.6z"></path>	<path id="XMLID_112_" class="st0" d="M48.8,57L45,46.2l2.2-0.8L51,56.3L48.8,57z"></path>	<path id="XMLID_111_" class="st0" d="M52.3,55.8L48.5,45l4.5-1.6l0.5,1.5l-2.3,0.8l1,3l1.6-0.6l0.5,1.5l-1.6,0.6l1.7,4.8L52.3,55.8   z"></path>	<path id="XMLID_110_" class="st0" d="M57.4,54l-3.8-10.8l2.2-0.8l3.8,10.8L57.4,54z"></path>	<path id="XMLID_109_" class="st0" d="M60.9,52.8L57.2,42l4.5-1.6l0.5,1.5l-2.3,0.8l1,3l1.6-0.6l0.5,1.5l-1.6,0.6l1.2,3.3l2.3-0.8   l0.5,1.5L60.9,52.8z"></path>	<path id="XMLID_93_" class="st0" d="M66.2,51l-3.8-10.8l2.3-0.8c0.7-0.3,1.3-0.4,1.9-0.4c0.5,0,1,0.1,1.3,0.3   c0.4,0.2,0.7,0.5,0.9,0.9c0.2,0.4,0.5,0.9,0.7,1.5l1.2,3.6c0.1,0.4,0.2,0.7,0.3,1c0.1,0.3,0.1,0.6,0.2,0.9c0,0.3,0,0.6,0,0.8   c0,0.2-0.1,0.5-0.3,0.7c-0.1,0.2-0.3,0.4-0.5,0.6c-0.2,0.2-0.5,0.4-0.8,0.5c-0.3,0.2-0.7,0.3-1.2,0.5L66.2,51z M68,48.7   c0.2-0.1,0.4-0.1,0.5-0.2c0.1,0,0.2-0.1,0.3-0.2c0.1-0.1,0.2-0.1,0.2-0.2c0-0.1,0.1-0.1,0.1-0.2c0-0.1,0-0.2,0-0.3   c0-0.1-0.1-0.3-0.1-0.4l-2-5.8c-0.1-0.4-0.3-0.6-0.6-0.6c-0.3,0-0.6,0-1.1,0.2L68,48.7z"></path></g><rect id="XMLID_81_" x="31.6" y="60.7" transform="matrix(0.9446 -0.3282 0.3282 0.9446 -17.3414 19.6654)" class="st0" width="36" height="1.1"></rect><g id="XMLID_42_">	<path id="XMLID_43_" class="st0" d="M73.8,16.4c0.1-0.2,0.3-0.3,0.4-0.6c-0.1-0.1-0.2-0.2-0.2-0.3c-0.1,0-0.1,0-0.2,0   C73.5,15.8,73.6,16.1,73.8,16.4z"></path>	<path id="XMLID_778_" class="st0" d="M28.3,3.9C28,3.8,28,3.8,28.2,3.6c-1.3,0.5-2.5,1-3.7,1.6c0,0.2,0.1,0.3,0.2,0.5   c0.1,0.3,0,0.4-0.3,0.6c0-0.3-0.1-0.6-0.2-0.9C11.8,11.6,3.7,23.6,2.1,36.9c0,0,0,0.1,0,0.1c0,0,0,0-0.1,0C2,37.3,2,37.7,1.9,38   c0.1-0.5,0.9-0.5,0.8,0.3c-0.3,0-0.6,0-0.8,0c0,0,0-0.1,0-0.1c-0.2,1.7-0.2,3.4-0.2,5.1C2.4,43,2.3,43,2.4,43.1   c-0.3,0.2-0.1,0.2-0.6,0.3c0,0,0,0,0,0c0.1,2,0.3,4.1,0.7,6.1c0.1,0.1,0.1,0.1,0.3,0.2c-0.1,0-0.1,0-0.2,0c0.4,1.9,0.9,3.7,1.5,5.6   c0.9,2.6,2,5,3.3,7.2c1.1,0,1.2,0.7,1,0.9c-0.2,0.2-0.4,0-0.8-0.5c1,1.7,2.1,3.2,3.3,4.7c0-0.1,0-0.2,0.1-0.3   c0.1,0.3,0.2,0.4,0.2,0.6c2.8,3.4,6.1,6.2,9.7,8.5c0.1-0.1,0.2-0.2,0.3-0.3c0.1,0.2,0.2,0.5,0.2,0.7c3.7,2.3,7.9,3.9,12.1,4.9   c0,0,0,0,0,0c0,0,0,0,0,0c1.2,0.3,2.5,0.5,3.8,0.7c0.1-0.1,0.1-0.2,0.1-0.3c0.1-0.3,0.3-0.3,0.7-0.1c-0.1,0.2-0.3,0.3-0.4,0.4   c4.3,0.5,8.8,0.3,13.3-0.6c-0.2-0.1-0.4-0.2-0.7-0.3c0.1-0.3,0.2-0.7,0.3-1c-0.3-0.2-0.5-0.4-0.8-0.6c0.5-0.2,0.5-0.2,1.3,0.5   c-0.3,0.4-0.2,0.3-0.3,0.5c0,0.6,0.6,0,0.7,0.5c0,0.1,0.1,0.2,0.2,0.2c1.4-0.3,2.8-0.7,4.2-1.2c21.3-7.4,32.6-30.8,25.2-52.1   c-1.6-4.6-3.9-8.7-6.8-12.3c0,0.3,0,0.6-0.1,0.9c-0.3-0.1-0.6-0.3-0.9-0.1c-0.1,0.1-0.4,0-0.5,0c-0.4-0.7-0.9,0.2-1.7-0.4   c-0.2-0.1-0.4-0.2-0.6-0.2c0.6,0.6,1.1,1.2,1.6,1.9c0.2-0.3,0.2-0.2,0.3-0.1c-0.1,0.1-0.1,0.2-0.1,0.3c2.5,3.2,4.6,6.9,6,10.9   c6.9,19.7-3.6,41.4-23.4,48.2c-1.2,0.4-2.4,0.8-3.6,1.1c0,0.1-0.1,0.1-0.1,0.1c0,0-0.1,0-0.2-0.1c-0.4,0.1-0.7,0.2-1.1,0.2   c0,0.1,0,0.1-0.1,0.2c-0.2,0.1-0.3,0.1-0.4-0.1c-9.3,1.7-18.6-0.2-26.4-4.8c-0.2,0.2-0.3,0.6-0.8,0.4c-0.2-0.3-0.3-0.6-0.2-1   C15.2,69.2,9.7,62.6,6.9,54.3c-1.7-5-2.4-10.2-2-15.2c-0.2,0-0.3-0.1-0.7-0.2c-0.5,0.6-1.1,1.1-2.1,0.7c0-0.2,0-0.5,0-0.8   c0.4,0,0.7,0.1,0.9-0.2c0.1-0.1,0.5-0.1,0.7-0.2c0.2-0.5-0.3-0.5-0.5-0.7c0-0.4,0-0.9,0-1.5c0.5,0.6,0.6,1.1,1,1.5   c0.2,0.2,0.4,0.4,0.6,0.6c0-0.4,0.1-0.7,0.1-1.1c-0.4,0-0.8,0.1-1-0.3c-0.4-0.7,0-1.2,0.1-1.4c0.6-0.1,1,0.1,1.1,0.4   c0.1-0.3,0.1-0.7,0.2-1c-0.2,0-0.3-0.1-0.4-0.2c-0.3-0.2,0-0.3,0.2-0.5c0.1,0.2,0.2,0.3,0.3,0.5c0-0.2,0.1-0.4,0.1-0.6   c0,0-0.1,0-0.1-0.1c0.1,0,0.1-0.1,0.1-0.1c0.5-2.1,1.1-4.2,1.9-6.2c-0.1-0.1,0-0.3,0-0.4c0-0.1,0.1-0.1,0.2-0.1   c0.9-2.2,2.1-4.4,3.5-6.4c0-0.1,0-0.1,0.1-0.1C15.7,14,22.2,8.8,30.2,6C39.4,2.8,49,3.4,57.3,6.9c0.1-0.1,0.2-0.1,0.3-0.2   c0,0.1,0,0.2,0,0.3c4.8,2,9.1,5.1,12.7,8.9c0.1-0.1,0.2-0.3,0.3-0.4c0.3-0.2,0.3-0.4,0.3-0.7c0-0.2,0.2-0.5,0.2-0.7   c0.6,0,0.5,0.5,0.7,0.7c0.3,0.3,0.2,0.6,0.2,0.9c0.2,0.1,0.3,0.2,0.6,0.2c0.3-0.3,0.6-0.7,0.9-0.9c-0.2-0.2-0.4-0.4-0.6-0.6   c0,0.1,0,0.1-0.1,0.3c-0.3-0.2-0.2-0.4-0.2-0.5c0,0-0.1-0.1-0.1-0.1c-0.3-0.2-0.8-0.3-0.6-0.6c-1.1-1.1-2.3-2.2-3.5-3.2   c-0.2,0-0.5,0.1-0.7,0.1c0-0.2,0-0.4,0-0.6c-0.3-0.2-0.7,0.1-0.9-0.3c-0.1-0.3-0.4-0.4-0.4-0.8c-6.7-4.8-14.7-7.5-23-7.7   c0,0.1-0.1,0.1-0.2,0c0,0,0,0,0-0.1c-4.7-0.1-9.5,0.6-14.1,2.3c-0.4,0.1-0.7,0.3-1.1,0.4C28.4,3.7,28.4,3.6,28.3,3.9z M75.6,17.8   c-0.2,0.1-0.4,0.3-0.6,0.5C75,17.7,75.1,17.5,75.6,17.8z M74.5,19.7c-0.3-0.1-0.5-0.2-0.7-0.2C74,18.9,75,19.1,74.5,19.7z    M81.5,51.3c-0.2,0.3-0.1,0.3-0.5,0.2C81.2,51.1,81.1,51.1,81.5,51.3z M80.4,55c-0.2,0.1-0.1,0.1-0.5-0.3   C80.3,54.6,80.3,54.8,80.4,55z M52.1,79.1c-0.4,0.3-0.3,0.3-0.5,0.2C51.9,79,51.8,79,52.1,79.1z M39.8,80.3   c0.1-0.3,0.2-0.2,1.7,0.4C40.3,81.2,39.7,80.6,39.8,80.3z M39.9,81c0.1,0.4,0.1,0.4-0.4,0.3C39.7,81.2,39.8,81.1,39.9,81z    M29.5,78.3c0.8-0.1,0.8-0.1,1.1,0.3c-0.3,0.1-0.6,0.3-1,0.4C29.6,78.8,29.5,78.6,29.5,78.3z M22.7,75c0.4,0.2-0.1,0.6,0.3,0.8   c0.1,0.1,0.1,0.6-0.3,0.7C22.2,75.3,22.1,75.6,22.7,75z M19.4,72.3c0.1,0,0.2,0,0.3,0c0,0,0,0.1,0,0.1   C19.3,72.5,19.4,72.5,19.4,72.3z M14.1,67.7c0.1,0.1,0.2,0.1,0.4,0.2c-0.1,0.1-0.2,0.2-0.2,0.2c-0.1,0-0.2-0.1-0.3-0.2   C13.9,67.9,14,67.8,14.1,67.7z M12.2,67c0.1-0.1,0.2-0.1,0.4-0.2c0,0,0.1,0.1,0.1,0.1c0,0-0.1,0.1-0.1,0.1c0.1,0,0.2,0.1,0.4,0.3   c-0.2,0.1-0.4,0.2-0.6,0.3c0-0.2-0.1-0.4,0-0.5c0,0,0,0,0,0C12.2,67.1,12.2,67.1,12.2,67z M2.3,40.3c0.1,0.2,0.2,0.1-0.2,0.4   C2,40.5,2,40.6,2.3,40.3z M2.2,44.7C2.2,44.7,2.2,44.7,2.2,44.7C2.2,44.7,2.2,44.7,2.2,44.7C2,44.4,2,44.4,2.1,44.3   C2.5,44.5,2.5,44.4,2.2,44.7C2.2,44.7,2.2,44.7,2.2,44.7L2.2,44.7C2.2,44.7,2.2,44.7,2.2,44.7C2.2,44.7,2.2,44.7,2.2,44.7   c0.2,0.4,0.3,0.3-0.3,0.2C1.9,44.8,1.8,44.8,2.2,44.7z M6.8,61.4c0.2-0.4,0.1-0.3,0.5-0.3C7,61.6,7.1,61.5,6.8,61.4z M3.2,50.5   c0.2-0.4,0.6-0.1,0.8-0.3c0.2-0.1,0-0.8,0.6-0.5c-0.1,0.5-0.2,0.9-0.7,1C3.7,50.8,3.4,50.9,3.2,50.5z M4.2,51.1   c-0.1-0.3-0.1-0.3,0.4-0.3C4.5,50.9,4.3,51,4.2,51.1z M8.7,63.9c0,0,0.1-0.2,0.2-0.3c0.1,0,0.2,0.1,0.5,0.2   C9.1,63.9,9,64.3,8.7,63.9z M5.9,52.5c-0.4,0.2-0.4,0.2-0.4,0C5.9,52.3,5.9,52.3,5.9,52.5z M3.4,39.8c0.2,0.1,0.2,0.1,0.1,0.3   C3.3,40,3.3,40.1,3.4,39.8z M3,40.6c0.2,0.1,0.2,0.1,0.1,0.3C2.8,40.8,2.8,40.9,3,40.6z M3.3,44.9c0.4-0.5,0.4-0.5,0.9,0   C3.9,44.8,3.6,44.9,3.3,44.9z M3,41.9c-0.2,0.2-0.3,0.4-0.5,0.6C2.4,42.1,2.4,42.1,3,41.9z M2.7,35.1c-0.3-0.7-0.2-1,0.5-1.2   C3.2,34,3.1,34.2,2.7,35.1z M3.9,35.2c0.1-0.2,0-0.2,0.4-0.2C4.1,35.3,4.2,35.2,3.9,35.2z M3.9,33.7c-0.1,0.1-0.2,0.2-0.3,0.2   c-0.1,0-0.4-0.1-0.4,0c0.2-0.3,0.2-0.4,0.6-0.4C3.9,33.5,3.9,33.7,3.9,33.7z M9.9,19.8c0-0.1,0.1-0.1,0.1-0.2c0.1,0,0.3-0.1,0.5,0   C9.9,19.9,10,19.9,9.9,19.8z M70.1,14.9c-0.5-0.2-0.2-0.5-0.2-0.7C69.9,14.4,70,14.6,70.1,14.9z M70.1,13.1c1.1,0,0.9-0.4,1,0.1   c-1.7,0.7-1.2,0.7-2.4,0.2C69.3,12.7,68.8,13.2,70.1,13.1z M60.5,7.5c-0.2-0.1-0.4-0.2-0.6-0.3C60.2,7.1,60.5,7,60.5,7.5z    M46.4,2.6c0,0,0.1,0.1,0.2,0.1c-0.1,0.1-0.1,0.2-0.2,0.2C46.3,2.8,46.2,2.9,46.4,2.6z M44.6,2.1c-0.2,0.2-0.1,0.2-0.4-0.1   C44.4,1.8,44.3,1.8,44.6,2.1z M43.3,1.3c-0.1,0.3-0.2,0.5-0.4,0.8C42.8,1.6,42.9,1.4,43.3,1.3z M41.9,1.6c0.2,0.2,0.2,0.2,0,0.4   C41.9,1.9,41.9,1.8,41.9,1.6z M29.9,4.7C29.7,5,29.8,5,29.5,4.9C29.6,4.6,29.5,4.6,29.9,4.7z"></path></g><g id="XMLID_107_">	<path id="XMLID_839_" class="st0" d="M44,6.7C44.1,7,44.2,7.5,44.2,8c0.7,0,1.3,0.1,1.9,0.1c-0.3-0.6-1.4,0.1-1.3-0.7   c0-0.7,1.4-0.5,2.5,0.6c0,0,0,0,0,0l0,0c0,0,0,0,0,0c-0.1,0.1-0.1,0.2-0.2,0.2c0.1,0,0.2,0,0.3,0c0-0.1,0-0.2-0.1-0.2   c0.2,0,0.3,0.1,0.4,0.3c0.4,0.1,0.8,0.1,1.2,0.2c0,0,0,0,0,0c0,0,0,0,0,0c1.8,0.3,3.5,0.8,5.3,1.4c0-0.2,0-0.1,0.1-0.3   c0.2,0.1,0.4,0.2,0.6,0.4c0,0-0.1,0.1-0.1,0.1c0.5,0.2,1.1,0.4,1.6,0.7c0.1,0,0.2,0,0.3,0c0.3,0,0.5,0.2,0.6,0.5   c7.8,3.8,14.2,10.5,17.2,19.3c2.1,6,2.4,12.2,1.1,18c0,0,0.1,0,0.1,0c0,0,0,0.1,0,0.1c0,0-0.1,0-0.1,0c-0.5,2.2-1.1,4.3-2,6.3   c0,0,0,0,0,0.1c0,0-0.1,0-0.1,0c-3.2,7.5-9.2,13.8-17,17.3c0.1,0.1,0.2,0.2,0.2,0.3c-0.4,0.1-0.6,0.1-0.6-0.1   c-0.9,0.4-1.7,0.7-2.6,1c-13.8,4.8-28.7,0.1-37.4-10.7c-0.1-0.1-0.3-0.2-0.4-0.4c-0.6,0-0.4,0-0.9,0.1c0.2-0.3,0.2-0.6,0.3-0.9   c-0.1-0.2-0.3-0.4-0.4-0.5c-0.1,0-0.1,0-0.1-0.2c-0.6-0.9-1.2-1.8-1.7-2.8c0,0,0,0,0,0c0,0,0,0,0,0c-0.9-1.7-1.8-3.5-2.4-5.4   C8.6,47,8.3,40.8,9.5,35c-0.3,0.2-0.6,0.4-1,0.3c0.1,0.5-0.3,0.5-0.5,0.7c-0.9,5.6-0.5,11.6,1.5,17.3c1.8,5.2,4.8,9.8,8.5,13.4   c0.1-0.1,0.2-0.3,0.1-0.4c-0.1-0.3,0-0.4,0.3-0.6c0.4,0.7,0.4,0.9-0.3,1.1c5.9,5.8,13.7,9.3,22,9.9c0.2-0.3,0.1-0.3,0.3-0.8   c0.6-0.1,0.5,0.7,1,0.7c0,0-0.1,0.1-0.1,0.1c0.5,0,1,0,1.5,0c-0.1,0-0.1-0.1-0.2-0.1c0.3-0.2,0.5-0.3,0.8-0.4c0,0.3,0,0.4,0.1,0.6   c0.3,0,0.5,0,0.8,0c0.2-0.4,0.2-0.3,1.1-0.4c0.1,0.2,0,0.3-0.1,0.4c1.6-0.1,3.2-0.3,4.8-0.7c0,0,0-0.1,0-0.1c0,0,0,0.1,0,0.1   c1.4-0.3,2.7-0.7,4.1-1.1c0.9-0.3,1.8-0.7,2.7-1.1c-0.1-0.1-0.2-0.1-0.3-0.2c0.2-0.4,0.2-0.4,0.8-0.5c0,0.2,0,0.3,0,0.4   c0.2-0.1,0.5-0.2,0.7-0.4c0.1-0.2,0.2-0.4,0.4-0.6c0.1,0.1,0.2,0.2,0.2,0.3c7-3.6,12.4-9.4,15.6-16.2c0,0-0.1-0.1-0.2-0.1   c0.1-0.1,0.2-0.1,0.3-0.2c1.1-2.4,2-4.9,2.5-7.5c-0.1,0.1-0.1,0.1-0.4,0c0.2-0.3,0.1-0.3,0.5-0.2c1.2-6,0.9-12.4-1.2-18.5   C71,16.3,58,7.3,44,6.7z M57.2,10.5c-0.2-0.3-0.2-0.3,0-0.3C57.3,10.5,57.3,10.4,57.2,10.5z M58.3,11.4c0-0.2-0.1-0.4-0.1-0.7   c0.3,0,0.5,0,0.7,0C58.9,11.2,58.6,11.2,58.3,11.4z M61,13.4c-0.1-0.3-0.3-0.6,0.1-0.9C61.3,12.8,61.4,13.1,61,13.4z M66.4,17.5   c-0.2,0-0.1,0.1-0.4-0.5c0.1,0,0.3-0.1,0.4-0.1C66.4,17.1,66.4,17.3,66.4,17.5z M15.9,63.8c0.1-0.5,0.4-0.4,0.7-0.2   C16.3,63.7,16.1,63.7,15.9,63.8z M24.9,70.9c0.3,0.2,0.5,0.3,0.8,0.5C25.1,71.5,25.1,71.5,24.9,70.9z"></path>	<path id="XMLID_848_" class="st0" d="M9.3,34.2c0.1-0.2,0.2-0.1-0.2-0.5c-0.2-0.3-0.2-0.3,0.2-0.6c0.2,0.1,0.1,0.6,0.5,0.6   c0,0,0,0,0,0C12.5,23,20.3,13.8,31.5,9.9c0,0,0-0.1-0.1-0.1c0.1,0,0.2,0,0.3,0.1C35.4,8.6,39.1,8,42.8,8c0.1-0.2,0.2-0.3,0.4-0.5   c-0.3-0.4-0.3-0.6-0.1-0.8c-4,0-8,0.6-11.9,1.9c-9.4,3.3-16.6,10.2-20.4,18.6c0.1,0,0.1,0.1,0.2,0.2c-0.1,0.1-0.2,0.1-0.3,0.1   c-0.9,2-1.6,4.1-2.1,6.3C8.8,33.9,9.1,33.8,9.3,34.2z"></path>	<path id="XMLID_849_" class="st0" d="M8.5,35.3c0.3-0.9,0.5-1,0-1.1C8.6,34.6,8,34.9,8.5,35.3z"></path>	<path id="XMLID_850_" class="st0" d="M9.6,34.9c0-0.2,0.1-0.4,0.2-0.7C9.5,34.4,9.4,34.6,9.6,34.9z"></path></g><path id="XMLID_878_" class="st0" d="M50.2,15.2c-0.3-0.1-0.6-0.1-0.7-0.3c0-0.1,0-0.1,0-0.2l-1.6-0.8c-0.1,0-0.2,0.1-0.3,0.1  c-0.2,0-0.4,0.2-0.5-0.1c0.1,0,0.2-0.1,0.3-0.2L46,13.1c0,0,0,0.1,0,0.1c-0.2,0.1-0.4,0.2-0.6,0.3l-9.6,19.8l-7.5-3.6l-3.7,7.6  l15.1,7.3l5.1-10.5c0-0.2,0.1-0.3,0.2-0.4c0,0,0,0,0,0l8.3-17l-3.1-1.5C50.1,15.1,50.2,15.1,50.2,15.2z M33,41.3  c0.3-0.3,0.4-0.2,0.5,0.1C33.4,41.4,33.2,41.3,33,41.3z M36.7,42C36.7,42,36.7,42,36.7,42C36.7,42,36.7,42,36.7,42  C36.7,42,36.7,42,36.7,42c0.1,0.1,0.2,0.2,0,0.3c-0.1,0-0.1,0-0.2,0C36.6,42,36.7,42,36.7,42C36.7,42,36.7,42,36.7,42  C36.7,42,36.7,42,36.7,42C36.6,42,36.6,42,36.7,42c0.2-0.5,0.2-0.5,0.6-0.3C37.1,41.9,36.8,42,36.7,42z M38,40.9  c-0.2-0.3,0.1-0.5,0.1-0.5C38.1,40.5,38.3,40.7,38,40.9z M38,40.4c-0.3-0.3,0-0.6,0-0.9C38.8,40,37.9,40.3,38,40.4z M37.8,38.5  c0.1-0.2,0-0.2,0.3-0.2C38,38.6,38.1,38.6,37.8,38.5z M43.6,23.9c-0.1-0.1-0.1-0.1-0.2-0.1c0.1-0.1,0.1-0.1,0.2-0.2  c0,0,0.1,0.1,0.1,0.1C43.8,23.8,43.7,23.8,43.6,23.9z M44.2,16.2c0-0.5,0.8-0.6,0.9,0.1C44.8,16.2,44.5,16.2,44.2,16.2z M46.2,17.3  c-0.4-0.8-0.4-0.5-0.2-1.3c-0.2-0.1-0.1-0.1-0.6,0.3c-0.6-0.8-0.1-1.5,0.1-1.1c0.2,0.4-0.4,0.5,0.8,0.1C46.5,16,46.7,16.6,46.2,17.3  z M47.1,15.2c-0.6,0-0.6,0-0.8-0.6C46.9,14.6,46.9,14.6,47.1,15.2z M48.6,15.1c-0.3,0-0.6,0-1,0C48,14.6,48,14.6,48.6,15.1z   M50,20.6c-0.3-0.4-0.2-0.3-0.1-0.4c0.1,0.1,0.1,0.2,0.2,0.3C50,20.5,50,20.6,50,20.6z M48.8,16.5c-0.3-0.3-0.2-0.4,0.1-0.6  C49,16.4,49,16.2,48.8,16.5z"></path></svg>