<svg xmlns="http://www.w3.org/2000/svg" xmlns:xlink="http://www.w3.org/1999/xlink" id="Laag_1" x="0px" y="0px" viewBox="-20 52 570 690" style="enable-background:new -20 52 570 690;" xml:space="preserve"><style type="text/css">	.st0{fill:#FFC100;}</style><g id="XMLID_4_">	<path id="XMLID_62_" class="st0" d="M526.9,186.4h-72.7c-7.7,0-13.9,6.2-13.9,13.9v86c0,7.7,6.2,13.9,13.9,13.9h12.3V567   c-0.2,1.5-1,6.2-3.2,10.5c-2.9,5.7-5.8,6.8-10.2,6.8c-9.3,0-12.7-3.4-14.8-6.6c-2.3-3.6-3.2-7.9-3.4-9.8V358.1   c0-13.3-10.7-24-24-24h-52.3V104.6c0-13.3-10.7-24-24-24H13.2c-13.3,0-24,10.7-24,24v584.7c0,13.3,10.7,24,24,24h321.4   c13.3,0,24-10.7,24-24V382.1h28.3v186.8c0,0.4,0,0.8,0,1.3c0.1,2.6,1.2,16.2,9.1,30.2c11.6,20.6,31.8,31.9,57.1,31.9   c23.4,0,42.2-11.8,53-33.2c6.9-13.6,8.1-26.6,8.3-29c0-0.6,0.1-1.2,0.1-1.8v-268h12.4c7.7,0,13.9-6.2,13.9-13.9v-86   C540.7,192.6,534.5,186.4,526.9,186.4z M310.6,665.3H37.2V128.6h273.4V665.3z"></path>	<path id="XMLID_66_" class="st0" d="M479.3,172.8h21.5c7.7,0,13.9-6.2,13.9-13.9V119c0-7.7-6.2-13.9-13.9-13.9h-21.5   c-7.7,0-13.9,6.2-13.9,13.9v39.9C465.4,166.6,471.6,172.8,479.3,172.8z"></path></g><g id="XMLID_59_">	<path id="XMLID_1_" class="st0" d="M108.4,421.3c-2.2-3.6-2.3-8.1-0.3-11.9L177,279.1c2.7-5.2,8.8-7.6,14.4-5.9   c5.6,1.8,9.1,7.3,8.2,13.2L188.4,367h21.9c4.2,0,8.2,2.2,10.3,5.8s2.3,8.1,0.3,11.9L152,514.8c-2.1,4-6.3,6.4-10.7,6.4   c-1.2,0-2.5-0.2-3.7-0.6c-5.6-1.8-9.1-7.3-8.2-13.2l11.2-80.5h-21.9C114.5,427,110.6,424.9,108.4,421.3z"></path></g></svg>