<?xml version="1.0" encoding="UTF-8"?>
<!-- Generator: Adobe Illustrator 19.0.0, SVG Export Plug-In . SVG Version: 6.00 Build 0)  -->
<svg xmlns="http://www.w3.org/2000/svg" xmlns:xlink="http://www.w3.org/1999/xlink" version="1.1" id="Laag_1" x="0px" y="0px" viewBox="0 0 148.4 158.8" style="enable-background:new 0 0 148.4 158.8;" xml:space="preserve">
<style type="text/css">
	.st0{fill:#EAB81C;}
	.st1{fill:#FFFFFF;}
</style>
<g id="XMLID_2108_">
	<g id="XMLID_2111_">
		<path id="XMLID_2112_" class="st0" d="M95.3,138.8c0,1.7-1.8,3.1-3.9,3.1h0H60.6c-2.2,0-3.9-1.4-3.9-3.1c0-1.7,1.8-3.1,3.9-3.1    h30.8C93.5,135.7,95.3,137.1,95.3,138.8z"></path>
	</g>
	<g id="XMLID_2109_">
		<path id="XMLID_2110_" class="st0" d="M90,145.7c0.3,0.6,0,1.3-0.6,1.7c-8,4.8-19.2,4.8-27.1,0c-0.9-0.5-1-1.5-0.4-2.1    c0.4-0.4,1-0.6,1.6-0.6h24.7C88.9,144.7,89.7,145.1,90,145.7L90,145.7z"></path>
	</g>
</g>
<g id="XMLID_2048_">
	<g id="XMLID_2049_">
		<g id="XMLID_2105_">
			<path id="XMLID_2106_" class="st1" d="M16.6,130.4H9.4v-12.9h7.2v1.6h-5.4v3.8h5.1v1.5h-5.1v4.4h5.4V130.4z"></path>
		</g>
		<g id="XMLID_2102_">
			<path id="XMLID_2103_" class="st1" d="M21,130.4h-1.8v-13.7H21V130.4z"></path>
		</g>
		<g id="XMLID_2096_">
			<path id="XMLID_2097_" class="st1" d="M27.8,120.5c0.8,0,1.6,0.2,2.2,0.5c0.6,0.4,1.1,0.9,1.4,1.5c0.3,0.7,0.5,1.4,0.5,2.3v1     h-6.6c0,1,0.3,1.8,0.8,2.4c0.5,0.6,1.2,0.8,2.2,0.8c0.6,0,1.2-0.1,1.6-0.2c0.5-0.1,1-0.3,1.5-0.5v1.5c-0.5,0.2-1,0.4-1.5,0.5     c-0.5,0.1-1.1,0.2-1.8,0.2c-0.9,0-1.8-0.2-2.5-0.6c-0.7-0.4-1.3-0.9-1.7-1.7c-0.4-0.7-0.6-1.6-0.6-2.7c0-1.1,0.2-2,0.5-2.7     s0.9-1.3,1.5-1.7C26.1,120.7,26.9,120.5,27.8,120.5z M27.8,121.9c-0.7,0-1.3,0.2-1.7,0.7c-0.4,0.5-0.7,1.1-0.8,2h4.8     c0-0.5-0.1-1-0.3-1.4c-0.2-0.4-0.4-0.7-0.7-1C28.7,122,28.3,121.9,27.8,121.9z"></path>
		</g>
		<g id="XMLID_2093_">
			<path id="XMLID_2094_" class="st1" d="M36,116.7v6.9c0,0.3,0,0.6,0,0.9c0,0.3,0,0.7-0.1,0.9H36c0.1-0.2,0.3-0.4,0.5-0.7     c0.2-0.3,0.4-0.5,0.6-0.7l3.1-3.3h2l-3.9,4.2l4.2,5.5h-2.1l-3.3-4.4l-1.2,1v3.4h-1.8v-13.7H36z"></path>
		</g>
		<g id="XMLID_2090_">
			<path id="XMLID_2091_" class="st1" d="M47.5,129.1c0.3,0,0.5,0,0.8-0.1c0.3,0,0.5-0.1,0.7-0.2v1.4c-0.2,0.1-0.5,0.2-0.8,0.2     c-0.3,0.1-0.7,0.1-1,0.1c-0.5,0-1-0.1-1.4-0.3c-0.4-0.2-0.8-0.5-1-0.9s-0.4-1.1-0.4-1.8V122H43v-0.8l1.4-0.7l0.6-2.1h1.1v2.2h2.8     v1.4h-2.8v5.4c0,0.5,0.1,1,0.4,1.2C46.7,129,47.1,129.1,47.5,129.1z"></path>
		</g>
		<g id="XMLID_2087_">
			<path id="XMLID_2088_" class="st1" d="M55.6,120.5c0.2,0,0.4,0,0.6,0c0.2,0,0.4,0,0.5,0.1l-0.2,1.6c-0.1,0-0.3-0.1-0.5-0.1     c-0.2,0-0.4,0-0.5,0c-0.4,0-0.7,0.1-1.1,0.2c-0.3,0.1-0.6,0.3-0.9,0.6c-0.3,0.3-0.5,0.6-0.6,1c-0.1,0.4-0.2,0.8-0.2,1.3v5.1h-1.8     v-9.7h1.4l0.2,1.8h0.1c0.2-0.4,0.4-0.7,0.7-1c0.3-0.3,0.6-0.5,1-0.7C54.7,120.6,55.1,120.5,55.6,120.5z"></path>
		</g>
		<g id="XMLID_2081_">
			<path id="XMLID_2082_" class="st1" d="M67,125.5c0,0.8-0.1,1.5-0.3,2.1c-0.2,0.6-0.5,1.2-0.9,1.6c-0.4,0.4-0.9,0.8-1.4,1     c-0.6,0.2-1.2,0.3-1.9,0.3c-0.7,0-1.3-0.1-1.8-0.3c-0.5-0.2-1-0.6-1.4-1c-0.4-0.4-0.7-1-0.9-1.6c-0.2-0.6-0.3-1.3-0.3-2.1     c0-1.1,0.2-2,0.5-2.7c0.4-0.7,0.9-1.3,1.6-1.7c0.7-0.4,1.5-0.6,2.4-0.6c0.9,0,1.7,0.2,2.4,0.6c0.7,0.4,1.2,1,1.6,1.7     C66.8,123.6,67,124.5,67,125.5z M59.8,125.5c0,0.7,0.1,1.4,0.3,1.9c0.2,0.5,0.5,0.9,0.9,1.2c0.4,0.3,0.9,0.4,1.5,0.4     c0.6,0,1.1-0.1,1.5-0.4c0.4-0.3,0.7-0.7,0.9-1.2c0.2-0.5,0.3-1.2,0.3-1.9c0-0.7-0.1-1.4-0.3-1.9c-0.2-0.5-0.5-0.9-0.9-1.2     c-0.4-0.3-0.9-0.4-1.5-0.4c-0.9,0-1.6,0.3-2,0.9C60,123.5,59.8,124.4,59.8,125.5z"></path>
		</g>
		<g id="XMLID_2078_">
			<path id="XMLID_2079_" class="st1" d="M72.8,129.1c0.3,0,0.5,0,0.8-0.1c0.3,0,0.5-0.1,0.7-0.2v1.4c-0.2,0.1-0.5,0.2-0.8,0.2     c-0.3,0.1-0.7,0.1-1,0.1c-0.5,0-1-0.1-1.4-0.3c-0.4-0.2-0.8-0.5-1-0.9c-0.3-0.4-0.4-1.1-0.4-1.8V122h-1.3v-0.8l1.4-0.7l0.6-2.1     h1.1v2.2h2.8v1.4h-2.8v5.4c0,0.5,0.1,1,0.4,1.2C72,129,72.4,129.1,72.8,129.1z"></path>
		</g>
		<g id="XMLID_2074_">
			<path id="XMLID_2075_" class="st1" d="M80,120.5c0.8,0,1.6,0.2,2.2,0.5c0.6,0.4,1.1,0.9,1.4,1.5c0.3,0.7,0.5,1.4,0.5,2.3v1h-6.6     c0,1,0.3,1.8,0.8,2.4c0.5,0.6,1.2,0.8,2.2,0.8c0.6,0,1.2-0.1,1.6-0.2c0.5-0.1,1-0.3,1.5-0.5v1.5c-0.5,0.2-1,0.4-1.5,0.5     c-0.5,0.1-1.1,0.2-1.8,0.2c-0.9,0-1.8-0.2-2.5-0.6c-0.7-0.4-1.3-0.9-1.7-1.7c-0.4-0.7-0.6-1.6-0.6-2.7c0-1.1,0.2-2,0.5-2.7     c0.4-0.8,0.9-1.3,1.5-1.7C78.4,120.7,79.1,120.5,80,120.5z M80,121.9c-0.7,0-1.3,0.2-1.7,0.7c-0.4,0.5-0.7,1.1-0.8,2h4.8     c0-0.5-0.1-1-0.3-1.4c-0.2-0.4-0.4-0.7-0.7-1S80.5,121.9,80,121.9z"></path>
		</g>
		<g id="XMLID_2071_">
			<path id="XMLID_2072_" class="st1" d="M90.4,130.6c-0.9,0-1.7-0.2-2.3-0.5c-0.7-0.4-1.2-0.9-1.6-1.6c-0.4-0.7-0.5-1.7-0.5-2.8     c0-1.2,0.2-2.1,0.6-2.9c0.4-0.7,0.9-1.3,1.6-1.7c0.7-0.4,1.5-0.5,2.4-0.5c0.5,0,1,0.1,1.5,0.2c0.5,0.1,0.8,0.2,1.2,0.4l-0.5,1.4     c-0.3-0.1-0.7-0.2-1.1-0.3c-0.4-0.1-0.7-0.1-1.1-0.1c-0.6,0-1.1,0.1-1.5,0.4c-0.4,0.3-0.7,0.7-0.9,1.2c-0.2,0.5-0.3,1.2-0.3,2     c0,0.8,0.1,1.4,0.3,1.9c0.2,0.5,0.5,0.9,0.9,1.2c0.4,0.3,0.9,0.4,1.5,0.4c0.5,0,1-0.1,1.4-0.2c0.4-0.1,0.8-0.3,1.2-0.4v1.6     c-0.3,0.2-0.7,0.3-1.1,0.4C91.4,130.5,90.9,130.6,90.4,130.6z"></path>
		</g>
		<g id="XMLID_2066_">
			<path id="XMLID_2067_" class="st1" d="M97,116.7v3.8c0,0.3,0,0.6,0,0.9c0,0.3,0,0.5-0.1,0.7H97c0.2-0.3,0.5-0.6,0.8-0.8     c0.3-0.2,0.6-0.4,1-0.5c0.4-0.1,0.8-0.2,1.2-0.2c0.8,0,1.4,0.1,1.9,0.4c0.5,0.2,0.9,0.6,1.2,1.1c0.3,0.5,0.4,1.2,0.4,2v6.3h-1.8     v-6.1c0-0.8-0.2-1.4-0.5-1.7c-0.3-0.4-0.9-0.6-1.6-0.6c-0.7,0-1.2,0.1-1.6,0.4s-0.7,0.7-0.9,1.2c-0.2,0.5-0.3,1.2-0.3,1.9v4.9     h-1.8v-13.7H97z"></path>
		</g>
		<g id="XMLID_2063_">
			<path id="XMLID_2064_" class="st1" d="M111.3,120.5c1.1,0,2,0.3,2.6,0.8c0.6,0.6,0.9,1.5,0.9,2.7v6.3h-1.8v-6.1     c0-0.8-0.2-1.4-0.5-1.7s-0.9-0.6-1.6-0.6c-1,0-1.7,0.3-2.1,0.9c-0.4,0.6-0.6,1.5-0.6,2.6v4.9h-1.8v-9.7h1.4l0.3,1.4h0.1     c0.2-0.3,0.5-0.6,0.8-0.9c0.3-0.2,0.7-0.4,1.1-0.5C110.5,120.6,110.9,120.5,111.3,120.5z"></path>
		</g>
		<g id="XMLID_2059_">
			<path id="XMLID_2060_" class="st1" d="M118.7,117c0.3,0,0.5,0.1,0.7,0.2s0.3,0.4,0.3,0.8c0,0.4-0.1,0.6-0.3,0.8s-0.4,0.3-0.7,0.3     c-0.3,0-0.5-0.1-0.7-0.3s-0.3-0.4-0.3-0.8c0-0.4,0.1-0.6,0.3-0.8S118.4,117,118.7,117z M119.5,120.7v9.7h-1.8v-9.7H119.5z"></path>
		</g>
		<g id="XMLID_2055_">
			<path id="XMLID_2056_" class="st1" d="M126.4,120.5c0.8,0,1.6,0.2,2.2,0.5c0.6,0.4,1.1,0.9,1.4,1.5c0.3,0.7,0.5,1.4,0.5,2.3v1     h-6.6c0,1,0.3,1.8,0.8,2.4c0.5,0.6,1.2,0.8,2.2,0.8c0.6,0,1.2-0.1,1.6-0.2c0.5-0.1,1-0.3,1.5-0.5v1.5c-0.5,0.2-1,0.4-1.5,0.5     c-0.5,0.1-1.1,0.2-1.8,0.2c-0.9,0-1.8-0.2-2.5-0.6c-0.7-0.4-1.3-0.9-1.7-1.7c-0.4-0.7-0.6-1.6-0.6-2.7c0-1.1,0.2-2,0.5-2.7     c0.4-0.8,0.9-1.3,1.5-1.7C124.7,120.7,125.5,120.5,126.4,120.5z M126.4,121.9c-0.7,0-1.3,0.2-1.7,0.7c-0.4,0.5-0.7,1.1-0.8,2h4.8     c0-0.5-0.1-1-0.3-1.4c-0.2-0.4-0.4-0.7-0.7-1S126.9,121.9,126.4,121.9z"></path>
		</g>
		<g id="XMLID_2050_">
			<path id="XMLID_2051_" class="st1" d="M134.6,116.7v6.9c0,0.3,0,0.6,0,0.9c0,0.3,0,0.7-0.1,0.9h0.1c0.1-0.2,0.3-0.4,0.5-0.7     c0.2-0.3,0.4-0.5,0.6-0.7l3.1-3.3h2l-3.9,4.2l4.2,5.5H139l-3.3-4.4l-1.2,1v3.4h-1.8v-13.7H134.6z"></path>
		</g>
	</g>
</g>
<g id="XMLID_93_">
	<g id="XMLID_2197_">
		<g id="XMLID_2328_">
			<path id="XMLID_2329_" class="st0" d="M68.3,37.7c0,4.1,3.3,7.4,7.4,7.4s7.4-3.3,7.4-7.4s-3.3-7.4-7.4-7.4S68.3,33.7,68.3,37.7z"></path>
		</g>
		<g id="XMLID_2198_">
			<g id="XMLID_2326_">
				<rect id="XMLID_2327_" x="63" y="36.4" class="st0" width="3.2" height="2.7"></rect>
			</g>
			<g id="XMLID_2324_">
				<rect id="XMLID_2325_" x="85.2" y="36.4" class="st0" width="3.2" height="2.7"></rect>
			</g>
			<g id="XMLID_2210_">
				<rect id="XMLID_2323_" x="74.3" y="25.1" class="st0" width="2.7" height="3.2"></rect>
			</g>
			<g id="XMLID_2208_">
				<rect id="XMLID_2209_" x="74.3" y="47.3" class="st0" width="2.7" height="3.2"></rect>
			</g>
			<g id="XMLID_2206_">
				
					<rect id="XMLID_2207_" x="66.5" y="28.3" transform="matrix(0.7072 -0.707 0.707 0.7072 -1.2799 56.702)" class="st0" width="2.7" height="3.2"></rect>
			</g>
			<g id="XMLID_2204_">
				
					<rect id="XMLID_2205_" x="82.2" y="44" transform="matrix(-0.7071 0.7071 -0.7071 -0.7071 174.8304 18.782)" class="st0" width="2.7" height="3.2"></rect>
			</g>
			<g id="XMLID_2202_">
				
					<rect id="XMLID_2203_" x="66.2" y="44.3" transform="matrix(-0.7071 0.7071 -0.7071 -0.7071 148.0234 29.8858)" class="st0" width="3.2" height="2.7"></rect>
			</g>
			<g id="XMLID_2200_">
				
					<rect id="XMLID_2201_" x="82.2" y="28.8" transform="matrix(-0.7071 0.7071 -0.7071 -0.7071 164.2889 -7.7015)" class="st0" width="3.2" height="2.7"></rect>
			</g>
		</g>
	</g>
	<path id="XMLID_2193_" class="st0" d="M95.1,46.6c-4.4,0-8,3.6-8,8c0,2.5,1.1,4.7,2.9,6.2l-4.3,6.9h4.1l3.3-5.3   c0.6,0.2,1.3,0.2,1.9,0.2c4.4,0,8-3.6,8-8S99.5,46.6,95.1,46.6z M98.9,58.2c0,0.1,0,0.2-0.1,0.3c-0.1,0.1-0.2,0.1-0.3,0.1H96v-2.5   h-1.7v2.5h-2.5c-0.1,0-0.2,0-0.3-0.1s-0.1-0.2-0.1-0.3v-3.2c0,0,0,0,0,0c0,0,0,0,0,0l3.8-3.1l3.8,3.1c0,0,0,0,0,0V58.2z    M100.4,54.6l-0.4,0.5c0,0-0.1,0.1-0.1,0.1h0c-0.1,0-0.1,0-0.1,0l-4.6-3.8l-4.6,3.8c-0.1,0-0.1,0.1-0.2,0c-0.1,0-0.1,0-0.1-0.1   l-0.4-0.5c0,0-0.1-0.1,0-0.2s0-0.1,0.1-0.1l4.8-4c0.1-0.1,0.3-0.2,0.5-0.2s0.4,0.1,0.5,0.2l1.6,1.3v-1.3c0-0.1,0-0.1,0.1-0.2   c0,0,0.1-0.1,0.2-0.1h1.3c0.1,0,0.1,0,0.2,0.1c0,0,0.1,0.1,0.1,0.2v2.7l1.4,1.2c0,0,0.1,0.1,0.1,0.1   C100.5,54.5,100.4,54.6,100.4,54.6z"></path>
	<path id="XMLID_2192_" class="st0" d="M45,67.6c-2.5-4.8-4.2-10.3-4.2-16.9c0-19.4,15.8-35.2,35.2-35.2c19.4,0,35.2,15.8,35.2,35.2   c0,6.6-1.7,12.1-4.2,16.9h8.6c2-4.9,3.4-10.4,3.4-16.9c0-23.7-19.3-43-43-43c-23.7,0-43,19.3-43,43c0,6.5,1.4,12,3.4,16.9H45z"></path>
	<path id="XMLID_2045_" class="st0" d="M61.2,60.8c1.8-1.5,2.9-3.7,2.9-6.2c0-4.4-3.6-8-8-8c-4.4,0-8,3.6-8,8s3.6,8,8,8   c0.7,0,1.3-0.1,1.9-0.2l3.3,5.3h4.1L61.2,60.8z M59.2,54l-4.4,6c-0.1,0.1-0.2,0.1-0.3,0.1c0,0-0.1,0-0.1,0   c-0.2-0.1-0.2-0.2-0.2-0.4l0.9-4.2h-1.7c-0.1,0-0.2-0.1-0.3-0.1c-0.1-0.1-0.1-0.2,0-0.3l1.6-4.7c0-0.1,0.2-0.2,0.3-0.2h2.7   c0.1,0,0.2,0.1,0.3,0.2c0.1,0.1,0.1,0.2,0,0.3l-1.4,2.7H59h0c0.2,0,0.4,0.2,0.4,0.4C59.3,53.8,59.3,53.9,59.2,54z"></path>
</g>
<g id="XMLID_2032_">
	<g id="XMLID_81_">
		<path id="XMLID_90_" class="st1" d="M25.8,72.2l4.6,18.1h0.1l4.7-18.1h15.9v42H40.9V90.3h-0.1l-6.2,23.9h-8.3l-6-23.9H20v23.9H9.6    v-42H25.8z"></path>
		<path id="XMLID_88_" class="st1" d="M54.3,105.4h10.1v8.7H54.3V105.4z"></path>
		<path id="XMLID_86_" class="st1" d="M89.4,72.2v8.9H79.1v7.2H88v8.6h-8.9v8.4h10.3v8.9H67.5v-42H89.4z"></path>
		<path id="XMLID_84_" class="st1" d="M92.5,105.4h10.1v8.7H92.5V105.4z"></path>
		<path id="XMLID_82_" class="st1" d="M117.3,114.1h-11.6v-42h11.6v16.5h0.1l8.6-16.5h12.3l-11.3,19.1l12.5,22.9h-13.2l-9-16.5h-0.1    V114.1z"></path>
	</g>
</g>
</svg>
