<svg xmlns="http://www.w3.org/2000/svg" xmlns:xlink="http://www.w3.org/1999/xlink" id="Laag_1" x="0px" y="0px" viewBox="0 0 595.3 595.3" style="enable-background:new 0 0 595.3 595.3;" xml:space="preserve"><style type="text/css">	.st0{fill:#EAB81C;}	.st1{fill:#FFFFFF;}</style><rect id="XMLID_1_" x="0" width="595.3" height="595.3"></rect><g id="XMLID_2108_">	<g id="XMLID_2111_">		<path id="XMLID_2112_" class="st0" d="M353.6,463.2c0,4.7-4.9,8.6-11,8.6h0h-86c-6.1,0-11-3.8-11-8.6c0-4.7,4.9-8.6,11-8.6h86    C348.6,454.6,353.6,458.4,353.6,463.2z"></path>	</g>	<g id="XMLID_2109_">		<path id="XMLID_2110_" class="st0" d="M338.7,482.6c0.8,1.7,0,3.6-1.8,4.8c-22.3,13.5-53.6,13.5-75.9,0c-2.4-1.4-2.9-4.1-1-6    c1-1.1,2.7-1.7,4.4-1.7h69.1C335.9,479.7,338,480.9,338.7,482.6L338.7,482.6z"></path>	</g></g><g id="XMLID_2048_">	<g id="XMLID_2049_">		<g id="XMLID_2105_">			<path id="XMLID_2106_" class="st1" d="M133.7,439.7h-20.2v-36h20.2v4.3h-15.2v10.7h14.2v4.3h-14.2v12.3h15.2V439.7z"></path>		</g>		<g id="XMLID_2102_">			<path id="XMLID_2103_" class="st1" d="M145.9,439.7h-5v-38.3h5V439.7z"></path>		</g>		<g id="XMLID_2096_">			<path id="XMLID_2097_" class="st1" d="M165,412.1c2.4,0,4.4,0.5,6.1,1.5c1.7,1,3,2.4,3.9,4.3c0.9,1.8,1.4,4,1.4,6.5v2.8h-18.4     c0,2.9,0.8,5.1,2.2,6.7c1.4,1.6,3.5,2.3,6.1,2.3c1.7,0,3.3-0.2,4.6-0.5s2.7-0.8,4.2-1.5v4.2c-1.4,0.6-2.7,1.1-4.1,1.4     c-1.4,0.3-3,0.4-4.9,0.4c-2.6,0-4.9-0.5-6.9-1.6c-2-1-3.5-2.6-4.6-4.7c-1.1-2.1-1.6-4.6-1.6-7.6c0-3,0.5-5.5,1.5-7.7     c1-2.1,2.4-3.8,4.2-4.9C160.4,412.7,162.5,412.1,165,412.1z M165,416c-2,0-3.6,0.7-4.8,2c-1.2,1.3-1.9,3.2-2.1,5.6h13.3     c0-1.5-0.3-2.8-0.7-3.9c-0.5-1.1-1.2-2-2.1-2.7S166.4,416,165,416z"></path>		</g>		<g id="XMLID_2093_">			<path id="XMLID_2094_" class="st1" d="M187.9,401.4v19.2c0,0.8,0,1.6-0.1,2.6c-0.1,1-0.1,1.8-0.2,2.6h0.2     c0.4-0.5,0.9-1.1,1.5-1.9c0.6-0.8,1.2-1.5,1.7-2l8.7-9.3h5.7l-10.9,11.6l11.6,15.5h-5.9l-9.1-12.4l-3.3,2.9v9.5H183v-38.3H187.9z     "></path>		</g>		<g id="XMLID_2090_">			<path id="XMLID_2091_" class="st1" d="M220.2,436.2c0.7,0,1.4-0.1,2.1-0.2c0.7-0.1,1.3-0.3,1.9-0.5v3.8c-0.6,0.2-1.3,0.5-2.2,0.6     c-0.9,0.2-1.9,0.3-2.8,0.3c-1.5,0-2.8-0.3-4-0.8c-1.2-0.5-2.2-1.4-2.9-2.6c-0.7-1.2-1.1-2.9-1.1-5.1v-15.3h-3.8v-2.3l3.9-1.8     l1.7-5.9h3.1v6.2h7.9v3.8h-7.9v15.2c0,1.5,0.4,2.7,1.1,3.4C217.9,435.8,218.9,436.2,220.2,436.2z"></path>		</g>		<g id="XMLID_2087_">			<path id="XMLID_2088_" class="st1" d="M242.7,412.1c0.5,0,1,0,1.6,0.1c0.6,0.1,1.1,0.1,1.5,0.2l-0.5,4.6     c-0.4-0.1-0.9-0.2-1.4-0.2c-0.5-0.1-1-0.1-1.4-0.1c-1,0-2.1,0.2-3,0.6c-1,0.4-1.8,1-2.5,1.7c-0.7,0.7-1.3,1.7-1.7,2.7     c-0.4,1.1-0.6,2.3-0.6,3.7v14.3h-5v-27.1h4l0.6,4.9h0.2c0.6-1,1.2-1.9,2-2.7c0.8-0.8,1.7-1.5,2.8-2     C240.3,412.4,241.4,412.1,242.7,412.1z"></path>		</g>		<g id="XMLID_2081_">			<path id="XMLID_2082_" class="st1" d="M274.5,426.1c0,2.2-0.3,4.2-0.9,6c-0.6,1.7-1.4,3.2-2.5,4.4c-1.1,1.2-2.4,2.1-4,2.8     c-1.6,0.6-3.3,0.9-5.3,0.9c-1.8,0-3.5-0.3-5.1-0.9c-1.5-0.6-2.9-1.6-4-2.8c-1.1-1.2-2-2.7-2.6-4.4c-0.6-1.7-0.9-3.7-0.9-6     c0-3,0.5-5.5,1.5-7.6c1-2.1,2.5-3.7,4.4-4.8c1.9-1.1,4.2-1.6,6.8-1.6c2.5,0,4.7,0.6,6.6,1.6s3.4,2.7,4.4,4.8     C274,420.6,274.5,423.2,274.5,426.1z M254.4,426.1c0,2.1,0.3,3.9,0.8,5.4c0.5,1.5,1.4,2.7,2.5,3.5c1.1,0.8,2.5,1.2,4.3,1.2     c1.7,0,3.1-0.4,4.3-1.2c1.1-0.8,1.9-2,2.5-3.5c0.5-1.5,0.8-3.3,0.8-5.4c0-2.1-0.3-3.8-0.8-5.3c-0.5-1.5-1.3-2.6-2.4-3.4     c-1.1-0.8-2.5-1.2-4.3-1.2c-2.6,0-4.5,0.9-5.7,2.6C255,420.6,254.4,423,254.4,426.1z"></path>		</g>		<g id="XMLID_2078_">			<path id="XMLID_2079_" class="st1" d="M290.8,436.2c0.7,0,1.4-0.1,2.1-0.2c0.7-0.1,1.3-0.3,1.9-0.5v3.8c-0.6,0.2-1.3,0.5-2.2,0.6     c-0.9,0.2-1.9,0.3-2.8,0.3c-1.5,0-2.8-0.3-4-0.8c-1.2-0.5-2.2-1.4-2.9-2.6c-0.7-1.2-1.1-2.9-1.1-5.1v-15.3H278v-2.3l3.9-1.8     l1.7-5.9h3.1v6.2h7.9v3.8h-7.9v15.2c0,1.5,0.4,2.7,1.1,3.4C288.6,435.8,289.6,436.2,290.8,436.2z"></path>		</g>		<g id="XMLID_2074_">			<path id="XMLID_2075_" class="st1" d="M310.9,412.1c2.4,0,4.4,0.5,6.1,1.5c1.7,1,3,2.4,3.9,4.3c0.9,1.8,1.4,4,1.4,6.5v2.8h-18.4     c0,2.9,0.8,5.1,2.2,6.7c1.4,1.6,3.5,2.3,6.1,2.3c1.7,0,3.3-0.2,4.6-0.5s2.7-0.8,4.2-1.5v4.2c-1.4,0.6-2.7,1.1-4.1,1.4     c-1.4,0.3-3,0.4-4.9,0.4c-2.6,0-4.9-0.5-6.9-1.6c-2-1-3.5-2.6-4.6-4.7c-1.1-2.1-1.6-4.6-1.6-7.6c0-3,0.5-5.5,1.5-7.7     s2.4-3.8,4.2-4.9S308.5,412.1,310.9,412.1z M310.9,416c-2,0-3.6,0.7-4.8,2c-1.2,1.3-1.9,3.2-2.1,5.6h13.3c0-1.5-0.3-2.8-0.7-3.9     c-0.5-1.1-1.2-2-2.1-2.7S312.4,416,310.9,416z"></path>		</g>		<g id="XMLID_2071_">			<path id="XMLID_2072_" class="st1" d="M339.9,440.2c-2.5,0-4.7-0.5-6.5-1.5c-1.9-1-3.3-2.5-4.3-4.6c-1-2.1-1.5-4.7-1.5-7.8     c0-3.3,0.5-6,1.6-8.1s2.6-3.6,4.6-4.6c1.9-1,4.2-1.5,6.7-1.5c1.5,0,2.9,0.1,4.1,0.4c1.3,0.3,2.4,0.7,3.2,1.1l-1.5,4     c-0.9-0.4-1.9-0.7-3-1c-1.1-0.3-2.1-0.4-3-0.4c-1.7,0-3.2,0.4-4.3,1.1c-1.1,0.8-2,1.9-2.6,3.4c-0.6,1.5-0.9,3.3-0.9,5.5     c0,2.1,0.3,3.9,0.8,5.3s1.4,2.6,2.5,3.3c1.1,0.8,2.5,1.1,4.1,1.1c1.5,0,2.8-0.2,3.9-0.5c1.2-0.3,2.2-0.7,3.2-1.3v4.4     c-1,0.5-2,0.9-3.1,1.2C342.9,440.1,341.5,440.2,339.9,440.2z"></path>		</g>		<g id="XMLID_2066_">			<path id="XMLID_2067_" class="st1" d="M358.5,401.4V412c0,0.8,0,1.7-0.1,2.5c0,0.8-0.1,1.5-0.2,2h0.3c0.6-1,1.3-1.7,2.1-2.4     c0.8-0.6,1.8-1.1,2.9-1.4s2.2-0.5,3.4-0.5c2.1,0,3.9,0.3,5.4,1c1.5,0.7,2.6,1.8,3.3,3.2c0.8,1.5,1.1,3.3,1.1,5.6v17.7h-4.9v-17     c0-2.2-0.5-3.8-1.4-4.9c-1-1.1-2.4-1.6-4.4-1.6c-1.9,0-3.4,0.4-4.5,1.1c-1.1,0.7-1.9,1.8-2.4,3.3c-0.5,1.4-0.7,3.2-0.7,5.3v13.8     h-4.9v-38.3H358.5z"></path>		</g>		<g id="XMLID_2063_">			<path id="XMLID_2064_" class="st1" d="M398.5,412.1c3.1,0,5.5,0.8,7.2,2.4c1.7,1.6,2.5,4.1,2.5,7.6v17.7h-4.9v-17     c0-2.2-0.5-3.8-1.4-4.9c-1-1.1-2.4-1.6-4.4-1.6c-2.8,0-4.8,0.8-5.9,2.5c-1.1,1.7-1.7,4.1-1.7,7.2v13.8H385v-27.1h3.9l0.7,3.8h0.3     c0.6-1,1.3-1.7,2.2-2.4s1.9-1.1,3-1.4C396.2,412.3,397.3,412.1,398.5,412.1z"></path>		</g>		<g id="XMLID_2059_">			<path id="XMLID_2060_" class="st1" d="M419,402.3c0.8,0,1.5,0.2,2,0.7c0.6,0.5,0.8,1.2,0.8,2.2c0,1-0.3,1.8-0.8,2.3     c-0.6,0.5-1.2,0.7-2,0.7c-0.8,0-1.5-0.2-2-0.7c-0.6-0.5-0.8-1.2-0.8-2.3c0-1,0.3-1.8,0.8-2.2C417.6,402.6,418.2,402.3,419,402.3z      M421.5,412.6v27.1h-4.9v-27.1H421.5z"></path>		</g>		<g id="XMLID_2055_">			<path id="XMLID_2056_" class="st1" d="M440.5,412.1c2.4,0,4.4,0.5,6.1,1.5c1.7,1,3,2.4,3.9,4.3c0.9,1.8,1.4,4,1.4,6.5v2.8h-18.4     c0,2.9,0.8,5.1,2.2,6.7c1.4,1.6,3.5,2.3,6.1,2.3c1.7,0,3.3-0.2,4.6-0.5s2.7-0.8,4.2-1.5v4.2c-1.4,0.6-2.7,1.1-4.1,1.4     c-1.4,0.3-3,0.4-4.9,0.4c-2.6,0-4.9-0.5-6.9-1.6c-2-1-3.5-2.6-4.6-4.7c-1.1-2.1-1.6-4.6-1.6-7.6c0-3,0.5-5.5,1.5-7.7     s2.4-3.8,4.2-4.9S438.1,412.1,440.5,412.1z M440.5,416c-2,0-3.6,0.7-4.8,2c-1.2,1.3-1.9,3.2-2.1,5.6h13.3c0-1.5-0.3-2.8-0.7-3.9     c-0.5-1.1-1.2-2-2.1-2.7S442,416,440.5,416z"></path>		</g>		<g id="XMLID_2050_">			<path id="XMLID_2051_" class="st1" d="M463.5,401.4v19.2c0,0.8,0,1.6-0.1,2.6c-0.1,1-0.1,1.8-0.2,2.6h0.2     c0.4-0.5,0.9-1.1,1.5-1.9c0.6-0.8,1.2-1.5,1.7-2l8.7-9.3h5.7l-10.9,11.6l11.6,15.5h-5.9l-9.1-12.4l-3.3,2.9v9.5h-4.9v-38.3H463.5     z"></path>		</g>	</g></g><g id="XMLID_93_">	<g id="XMLID_2197_">		<g id="XMLID_2328_">			<path id="XMLID_2329_" class="st0" d="M278.3,180.8c0,11.3,9.2,20.6,20.6,20.6s20.6-9.2,20.6-20.6s-9.2-20.6-20.6-20.6     S278.3,169.4,278.3,180.8z"></path>		</g>		<g id="XMLID_2198_">			<g id="XMLID_2326_">				<rect id="XMLID_2327_" x="263.3" y="177" class="st0" width="8.9" height="7.5"></rect>			</g>			<g id="XMLID_2324_">				<rect id="XMLID_2325_" x="325.4" y="177" class="st0" width="8.9" height="7.5"></rect>			</g>			<g id="XMLID_2210_">				<rect id="XMLID_2323_" x="295.1" y="145.3" class="st0" width="7.5" height="8.9"></rect>			</g>			<g id="XMLID_2208_">				<rect id="XMLID_2209_" x="295.1" y="207.4" class="st0" width="7.5" height="8.9"></rect>			</g>			<g id="XMLID_2206_">									<rect id="XMLID_2207_" x="273.1" y="154.4" transform="matrix(0.7072 -0.707 0.707 0.7072 -31.2149 242.2399)" class="st0" width="7.5" height="8.9"></rect>			</g>			<g id="XMLID_2204_">									<rect id="XMLID_2205_" x="317" y="198.3" transform="matrix(-0.7071 0.7071 -0.7071 -0.7071 690.9283 119.2234)" class="st0" width="7.5" height="8.9"></rect>			</g>			<g id="XMLID_2202_">									<rect id="XMLID_2203_" x="272.4" y="199" transform="matrix(-0.7071 0.7071 -0.7071 -0.7071 615.9884 150.2646)" class="st0" width="8.9" height="7.5"></rect>			</g>			<g id="XMLID_2200_">									<rect id="XMLID_2201_" x="316.9" y="155.8" transform="matrix(-0.7071 0.7071 -0.7071 -0.7071 661.4593 45.1877)" class="st0" width="8.9" height="7.5"></rect>			</g>		</g>	</g>	<path id="XMLID_2193_" class="st0" d="M353.2,205.6c-12.3,0-22.3,10-22.3,22.3c0,6.9,3.2,13.1,8.2,17.2L327,264.3h11.4l9.3-14.9   c1.7,0.4,3.5,0.7,5.4,0.7c12.3,0,22.3-10,22.3-22.3S365.5,205.6,353.2,205.6z M363.9,238c0,0.3-0.1,0.6-0.4,0.8   c-0.2,0.2-0.5,0.4-0.8,0.4h-7.1v-7.1h-4.7v7.1h-7.1c-0.3,0-0.6-0.1-0.8-0.4c-0.2-0.2-0.4-0.5-0.4-0.8v-8.9c0,0,0,0,0-0.1   c0,0,0,0,0-0.1l10.6-8.8l10.6,8.8c0,0,0,0.1,0,0.1V238z M368,227.9l-1.1,1.4c-0.1,0.1-0.2,0.2-0.4,0.2h-0.1c-0.2,0-0.3,0-0.4-0.1   l-12.8-10.7l-12.8,10.7c-0.1,0.1-0.3,0.1-0.4,0.1c-0.2,0-0.3-0.1-0.4-0.2l-1.1-1.4c-0.1-0.1-0.1-0.3-0.1-0.4c0-0.2,0.1-0.3,0.2-0.4   l13.3-11.1c0.4-0.3,0.9-0.5,1.4-0.5c0.5,0,1,0.2,1.4,0.5l4.5,3.8v-3.6c0-0.2,0.1-0.3,0.2-0.4c0.1-0.1,0.3-0.2,0.4-0.2h3.5   c0.2,0,0.3,0.1,0.4,0.2c0.1,0.1,0.2,0.3,0.2,0.4v7.5l4,3.4c0.1,0.1,0.2,0.2,0.2,0.4C368.1,227.6,368.1,227.7,368,227.9z"></path>	<path id="XMLID_2192_" class="st0" d="M213,264.3c-6.9-13.5-11.8-28.9-11.8-47.3c0-54.2,44.1-98.3,98.3-98.3   c54.2,0,98.3,44.1,98.3,98.3c0,18.4-4.9,33.8-11.8,47.3h24c5.7-13.6,9.5-29.2,9.5-47.3c0-66.2-53.9-120.1-120.1-120.1   c-66.2,0-120.1,53.9-120.1,120.1c0,18.1,3.8,33.6,9.5,47.3H213z"></path>	<path id="XMLID_2045_" class="st0" d="M258.4,245.1c5-4.1,8.2-10.3,8.2-17.2c0-12.3-10-22.3-22.3-22.3c-12.3,0-22.3,10-22.3,22.3   s10,22.3,22.3,22.3c1.9,0,3.7-0.3,5.4-0.7l9.3,14.9h11.4L258.4,245.1z M252.9,226.1L240.4,243c-0.2,0.3-0.5,0.4-0.8,0.4   c-0.1,0-0.3,0-0.4-0.1c-0.4-0.2-0.7-0.7-0.6-1.1l2.4-11.6h-4.6c-0.3,0-0.6-0.2-0.8-0.4c-0.2-0.3-0.2-0.6-0.1-0.9l4.5-13.1   c0.1-0.4,0.5-0.7,0.9-0.7h7.7c0.3,0,0.7,0.2,0.8,0.5c0.2,0.3,0.2,0.7,0,1l-3.9,7.6h6.5h0c0.5,0,1,0.4,1,1   C253.1,225.7,253,225.9,252.9,226.1z"></path></g><g id="XMLID_2032_">	<g id="XMLID_82_">		<path id="XMLID_91_" class="st1" d="M159.3,276.9l12.9,50.5h0.3l13.2-50.5h44.6v117.4h-28.7v-66.7h-0.3l-17.4,66.7h-23.3    l-16.9-66.7h-0.3v66.7h-29.1V276.9H159.3z"></path>		<path id="XMLID_89_" class="st1" d="M239.1,370h28.2v24.3h-28.2V370z"></path>		<path id="XMLID_87_" class="st1" d="M337.3,276.9v24.9h-28.9v20.1h24.9v24h-24.9v23.5h28.9v24.9H276V276.9H337.3z"></path>		<path id="XMLID_85_" class="st1" d="M346,370h28.2v24.3H346V370z"></path>		<path id="XMLID_83_" class="st1" d="M415.3,394.3h-32.4V276.9h32.4v46h0.3l24-46h34.5l-31.5,53.4l35,64h-36.9l-25.2-46.2h-0.2    V394.3z"></path>	</g></g></svg>