<svg xmlns="http://www.w3.org/2000/svg" xmlns:xlink="http://www.w3.org/1999/xlink" id="Laag_1" x="0px" y="0px" viewBox="-226 75.9 570 690" style="enable-background:new -226 75.9 570 690;" xml:space="preserve"><style type="text/css">	.st0{fill:#FFC100;}</style><g>	<path class="st0" d="M300.3,105.5h-482.2c-13.3,0-24,10.7-24,24v584.7c0,13.3,10.7,24,24,24h482.2c13.3,0,24-10.7,24-24V129.5   C324.3,116.3,313.6,105.5,300.3,105.5z M276.3,153.5v149h-434.2v-149H276.3z M-157.9,690.2V350.5h434.2v339.7H-157.9z"></path>	<path class="st0" d="M105,494H83.1l11.2-80.5c0.8-5.8-2.7-11.3-8.2-13.2c-5.6-1.8-11.6,0.7-14.4,5.9L2.8,536.5   c-2,3.7-1.9,8.2,0.3,11.9c2.2,3.6,6.1,5.8,10.3,5.8h21.9l-11.2,80.5c-0.8,5.8,2.7,11.3,8.2,13.2c1.2,0.4,2.5,0.6,3.7,0.6   c4.4,0,8.5-2.4,10.7-6.4l68.9-130.2c2-3.7,1.8-8.2-0.3-11.9C113.1,496.2,109.2,494,105,494z"></path>	<path class="st0" d="M-106.2,254.3h265.4c13.3,0,24-10.7,24-24s-10.7-24-24-24h-265.4c-13.3,0-24,10.7-24,24   S-119.4,254.3-106.2,254.3z"></path>	<ellipse class="st0" cx="229.1" cy="230.3" rx="21.8" ry="24.3"></ellipse></g></svg>