<svg xmlns="http://www.w3.org/2000/svg" xmlns:xlink="http://www.w3.org/1999/xlink" id="Laag_1" x="0px" y="0px" viewBox="-20 52 570 690" style="enable-background:new -20 52 570 690;" xml:space="preserve"><style type="text/css">	.st0{fill:#FFC100;}</style><g id="XMLID_1_">	<path id="XMLID_2_" class="st0" d="M397.3,223c13.3,0,24-10.7,24-24V99c0-13.3-10.7-24-24-24s-24,10.7-24,24v100   C373.3,212.3,384.1,223,397.3,223z"></path>	<path id="XMLID_4_" class="st0" d="M130.7,223c13.3,0,24-10.7,24-24V99c0-13.3-10.7-24-24-24s-24,10.7-24,24v100   C106.7,212.3,117.4,223,130.7,223z"></path>	<path id="XMLID_5_" class="st0" d="M406.7,366.9V399c0,78.7-64,142.7-142.7,142.7s-142.7-64-142.7-142.7v-76h9.3v-0.1h368.9   c12.2-1.1,21.7-11.4,21.7-23.9c0-13.3-10.7-24-24-24H30.7c-13.3,0-24,10.7-24,24s10.7,24,24,24h42.7v76   c0,97,72.8,177.3,166.7,189.2V699c0,13.3,10.7,24,24,24s24-10.7,24-24V588.2C381.8,576.3,454.7,496,454.7,399v-32.1H406.7z"></path></g></svg>