<svg xmlns="http://www.w3.org/2000/svg" xmlns:xlink="http://www.w3.org/1999/xlink" id="Laag_1" x="0px" y="0px" viewBox="-20 52 570 690" style="enable-background:new -20 52 570 690;" xml:space="preserve"><style type="text/css">	.st0{fill:#FFC100;}</style><g>	<path class="st0" d="M283,83.1H20c-13.3,0-24,10.7-24,24v414.1c0,13.3,10.7,24,24,24h239v125.7h-75.9c-13.3,0-24,10.7-24,24   s10.7,24,24,24H283c13.3,0,24-10.7,24-24V521.2V107.1C307,93.8,296.3,83.1,283,83.1z M44,270.7h83.5v89H44V270.7z M175.5,270.7H259   v89h-83.5V270.7z M259,407.7v89.5h-83.5v-89.5H259z M259,222.7h-83.5v-91.6H259V222.7z M127.5,131.1v91.6H44v-91.6H127.5z    M44,407.7h83.5v89.5H44V407.7z"></path>	<path class="st0" d="M334.6,166.4v50.8c50.8,14.4,80.8,68.8,67,121.7c-8.9,33.9-34.3,60.4-67,69.7v50.8   c77.7-14.2,129.7-91.2,116.1-172.1C440.3,225.5,393.9,177.2,334.6,166.4z"></path>	<path class="st0" d="M487.5,263.3c3,0.6,6.1,0.6,9.1,0l22.4-10.4c12.2-5,18.2-19.5,13.3-32.2c-4.9-12.8-18.8-19-31-13.9l-22.6,8.7   c-9.1,3.7-15.1,12.9-15.1,23.1C463.7,252.3,474.3,263.3,487.5,263.3z"></path>	<path class="st0" d="M376.3,153.2c2.9,1.4,6.1,2.1,9.3,2c9.5,0.1,18.1-5.8,21.9-14.9l9.5-22.8c0-0.1,0.1-0.2,0.1-0.3   c5.1-12.6-0.6-27.1-12.7-32.4c-12.1-5.4-26.1,0.5-31.2,13.1l-9.5,22.8C358.6,133.3,364.2,147.9,376.3,153.2z"></path>	<path class="st0" d="M517.3,377.8l-21.9-9.9c-12.1-5.4-26.1,0.4-31.3,13c-5.2,12.6,0.4,27.2,12.5,32.6l21.9,9.9c3,1.3,6.2,2,9.5,2   c9.6,0,18.2-6,21.9-15.1C535,397.7,529.4,383.1,517.3,377.8z"></path>	<path class="st0" d="M403.9,487.7c-4.9-12.8-18.9-18.9-31.1-13.8s-18.1,19.6-13.2,32.3l8.8,23c3.7,9.4,12.5,15.5,22.2,15.4   c3.1,0,6.2-0.6,9-1.7c12.1-5.1,18-19.5,13.1-32.2L403.9,487.7z"></path></g></svg>